<?xml version="1.0" standalone="no"?>
<!-- Generator: OCAD Version 10.3.0 -->
<!DOCTYPE svg PUBLIC "-//W3C//DTD SVG 20010904//EN"
"http://www.w3.org/TR/2001/REC-SVG-20010904/DTD/svg10.dtd" [
<!ENTITY stR "stroke-linejoin:round;stroke-linecap:round">
<!ENTITY stB "stroke-linejoin:bevel">
]>
<svg id="mainMap" width="4.0840cm" height="3.9390cm" viewBox="0 0 40.8400 39.3900" style="fill:none;stroke-width:0;fill-rule:evenodd" xmlns:xlink="http://www.w3.org/1999/xlink" xmlns="http://www.w3.org/2000/svg" >
<desc>Map</desc>
<g id="scaleTransform" transform="scale(1.00000000)">
<g id="mainMapContent">
<!-- map fill color -->
<rect id="mapBg" x="-100%" y="-100%" width="200%" height="200%" fill="white" />
<g>
<clipPath id="Clip" fill="none" stroke="none">
<rect x="0" y="0" width="40.8400" height="39.3900" fill="none" />
</clipPath>
<g clip-path="url(#Clip)">
<g opacity="1.00">
</g>
<g opacity="1.00">
</g>
<g opacity="1.00">
</g>
<g opacity="1.00">
</g>
<g opacity="1.00">
</g>
<g opacity="1.00">
</g>
<g opacity="1.00">
</g>
<g opacity="1.00">
</g>
<g opacity="1.00">
</g>
<g opacity="1.00">
<g id="1.7 line 24" >
<g stroke="rgb(0,161,199)">
<g stroke-width="1.00"
style="&stB;"
>
<path 
d="M12.69,9.81
L17.15,5.84
L17.15,5.84
L19.47,8.48
" />
</g>
<g stroke-width="1.00"
style="&stB;"
>
<path 
d="M18.35,6.72
L22.99,2.61
L22.99,2.61
L30.06,10.72
" />
</g>
<g stroke-width="1.00"
style="&stB;"
>
<path 
d="M11.89,28.58
L18.55,36.15
L18.55,36.15
L29.18,27.26
" />
</g>
</g>
</g>
</g>
<g opacity="1.00">
</g>
<g opacity="1.00">
</g>
<g opacity="1.00">
</g>
<g opacity="1.00">
<g id="1.6 line 20" >
<g stroke="rgb(0,163,61)">
<g stroke-width="1.00"
style="&stB;"
>
<path 
d="M9.08,12.69
L2.98,18.01
L2.98,18.01
L8.60,24.72
" />
</g>
<g stroke-width="1.00"
style="&stB;"
>
<path 
d="M32.69,13.63
L37.99,19.84
L37.99,19.84
L32.44,24.67
" />
</g>
</g>
</g>
</g>
<g opacity="1.00">
</g>
<g opacity="1.00">
</g>
<g opacity="1.00">
</g>
<g opacity="1.00">
</g>
<g opacity="1.00">
</g>
<g opacity="1.00">
</g>
<g opacity="1.00">
</g>
<g opacity="1.00">
</g>
<g opacity="1.00">
</g>
<g opacity="1.00">
</g>
<g opacity="1.00">
</g>
<g opacity="1.00">
</g>
<g opacity="1.00">
</g>
<g opacity="1.00">
</g>
<g opacity="1.00">
</g>
<g opacity="1.00">
</g>
<g opacity="1.00">
<g id="1.4 BLACK 3" >
<g stroke="rgb(102,102,102)">
<g fill="rgb(102,102,102)" >
<path 
d="M12.02,10.71
C11.58,11.02 11.48,11.63 11.79,12.07
C12.09,12.50 12.71,12.61 13.14,12.31
C13.57,12.00 13.68,11.39 13.37,10.95
C13.06,10.51 12.45,10.41 12.02,10.71
" />
</g>
<g fill="rgb(102,102,102)" >
<path 
d="M11.68,21.94
C11.64,22.17 11.58,22.31 11.46,22.39
C11.18,22.58 10.97,22.61 10.67,22.67
C10.36,22.73 10.06,22.71 9.79,22.73
C9.79,23.03 9.80,23.51 9.80,23.68
C10.26,23.69 10.50,23.70 11.03,23.65
C11.59,23.61 12.11,23.49 12.59,23.24
C12.95,23.04 13.02,22.91 13.19,22.63
C13.25,22.52 13.38,22.21 13.40,21.93
L13.40,13.34 
11.68,13.34 
11.68,21.93 
" />
</g>
<g fill="rgb(102,102,102)" >
<path 
d="M17.81,16.45
C17.96,16.05 18.14,15.76 18.42,15.48
C18.78,15.14 18.98,15.00 19.44,14.80
C20.06,14.56 20.43,14.59 21.06,14.67
C21.45,14.73 21.65,14.82 21.92,15.07
C22.26,15.39 22.33,15.46 22.46,15.90
C22.48,16.06 22.52,16.29 22.54,16.48
L22.54,23.21 
24.55,23.21 
24.55,16.70 
24.56,16.51 
C24.67,16.14 24.71,16.00 25.06,15.58
C25.46,15.11 25.84,14.94 26.52,14.78
C26.95,14.70 27.38,14.65 27.83,14.69
C28.39,14.75 28.57,14.83 28.89,15.10
C29.28,15.45 29.28,15.76 29.30,16.34
L29.32,23.29 
31.33,23.29 
31.32,16.00 
31.32,15.97 
C31.28,15.51 31.25,15.19 31.06,14.83
C30.84,14.48 30.79,14.35 30.52,14.13
C30.29,13.94 30.08,13.77 29.84,13.65
C29.10,13.32 28.87,13.27 28.36,13.22
C28.15,13.20 27.86,13.19 27.49,13.22
C27.09,13.24 26.83,13.29 26.48,13.40
C25.91,13.58 25.66,13.69 25.22,13.95
C24.88,14.18 24.75,14.35 24.46,14.64
C24.31,14.79 24.26,14.86 24.20,14.90
C24.18,14.84 24.12,14.75 24.10,14.68
C23.90,14.25 23.45,13.89 23.02,13.68
C22.52,13.46 22.17,13.33 21.56,13.28
C20.80,13.22 20.57,13.24 19.96,13.36
C19.34,13.48 19.12,13.62 18.64,13.84
C18.23,14.05 18.08,14.17 17.80,14.44
L17.80,13.45 
15.70,13.45 
15.70,23.32 
17.78,23.32 
17.80,16.54 
" />
</g>
</g>
</g>
<g id="1.2 txt2 3" >
<g stroke="rgb(102,102,102)">
<g fill="rgb(102,102,102)" >
<path 
d="M9.99,26.30
9.99,24.28 
10.40,24.28 
10.88,25.72 
C10.92,25.85 10.95,25.95 10.97,26.01
C10.99,25.94 11.03,25.83 11.08,25.69
L11.56,24.28 
11.92,24.28 
11.92,26.30 
11.66,26.30 
11.66,24.61 
11.08,26.30 
10.84,26.30 
10.25,24.59 
10.25,26.30 
" />
</g>
<g fill="rgb(102,102,102)" >
<path 
d="M13.38,26.30
14.16,24.28 
14.45,24.28 
15.27,26.30 
14.97,26.30 
14.73,25.69 
13.89,25.69 
13.67,26.30 
L13.38,26.30
M13.96,25.48
14.65,25.48 
14.44,24.92 
C14.37,24.75 14.33,24.61 14.30,24.50
C14.27,24.63 14.23,24.76 14.19,24.88
" />
</g>
<g fill="rgb(102,102,102)" >
<path 
d="M16.65,25.66
16.90,25.63 
C16.91,25.73 16.94,25.82 16.98,25.88
C17.02,25.95 17.09,26.00 17.18,26.04
C17.28,26.08 17.38,26.10 17.49,26.10
C17.60,26.10 17.69,26.08 17.76,26.05
C17.84,26.02 17.90,25.98 17.94,25.93
C17.98,25.88 18.00,25.82 18.00,25.76
C18.00,25.69 17.98,25.64 17.94,25.59
C17.90,25.54 17.84,25.50 17.76,25.47
C17.70,25.45 17.58,25.42 17.40,25.37
C17.21,25.33 17.08,25.29 17.01,25.25
C16.91,25.20 16.84,25.13 16.79,25.06
C16.75,24.98 16.72,24.90 16.72,24.81
C16.72,24.71 16.75,24.61 16.81,24.52
C16.87,24.43 16.95,24.37 17.06,24.32
C17.17,24.27 17.30,24.25 17.43,24.25
C17.58,24.25 17.72,24.27 17.83,24.32
C17.94,24.37 18.03,24.44 18.09,24.54
C18.15,24.63 18.19,24.74 18.19,24.85
L17.94,24.87 
C17.92,24.75 17.88,24.65 17.80,24.58
C17.72,24.52 17.60,24.49 17.44,24.49
C17.28,24.49 17.16,24.52 17.09,24.57
C17.02,24.63 16.98,24.71 16.98,24.79
C16.98,24.86 17.01,24.92 17.06,24.97
C17.11,25.02 17.24,25.06 17.46,25.11
C17.68,25.16 17.83,25.20 17.91,25.24
C18.03,25.30 18.11,25.36 18.17,25.45
C18.23,25.53 18.25,25.63 18.25,25.73
C18.25,25.84 18.22,25.94 18.16,26.04
C18.10,26.13 18.01,26.21 17.90,26.26
C17.78,26.31 17.65,26.34 17.51,26.34
C17.32,26.34 17.17,26.31 17.05,26.26
C16.92,26.21 16.83,26.13 16.76,26.02
C16.69,25.91 16.65,25.79 16.65,25.66
" />
</g>
<g fill="rgb(102,102,102)" >
<path 
d="M19.88,26.30
19.88,24.28 
20.14,24.28 
20.14,25.11 
21.19,25.11 
21.19,24.28 
21.46,24.28 
21.46,26.30 
21.19,26.30 
21.19,25.35 
20.14,25.35 
20.14,26.30 
" />
</g>
<g fill="rgb(102,102,102)" >
<path 
d="M24.48,24.28
24.75,24.28 
24.75,25.45 
C24.75,25.66 24.73,25.82 24.68,25.94
C24.63,26.06 24.55,26.15 24.43,26.23
C24.31,26.30 24.15,26.34 23.96,26.34
C23.77,26.34 23.62,26.31 23.50,26.24
C23.38,26.18 23.29,26.08 23.24,25.96
C23.19,25.83 23.16,25.67 23.16,25.45
L23.16,24.28 
23.43,24.28 
23.43,25.45 
C23.43,25.63 23.44,25.76 23.48,25.84
C23.51,25.92 23.57,25.99 23.65,26.03
C23.72,26.08 23.82,26.10 23.94,26.10
C24.13,26.10 24.27,26.05 24.36,25.96
C24.44,25.88 24.48,25.70 24.48,25.45
" />
</g>
<g fill="rgb(102,102,102)" >
<path 
d="M26.44,26.30
26.44,24.28 
27.21,24.28 
C27.34,24.28 27.44,24.29 27.51,24.30
C27.61,24.32 27.70,24.35 27.76,24.40
C27.83,24.44 27.88,24.51 27.93,24.59
C27.97,24.68 27.99,24.77 27.99,24.87
C27.99,25.04 27.93,25.19 27.82,25.31
C27.71,25.42 27.52,25.48 27.23,25.48
L26.71,25.48 
26.71,26.30 
L26.44,26.30
M26.71,25.25
27.23,25.25 
C27.41,25.25 27.53,25.21 27.60,25.15
C27.67,25.08 27.71,24.99 27.71,24.88
C27.71,24.79 27.69,24.72 27.65,24.66
C27.60,24.60 27.55,24.56 27.48,24.54
C27.43,24.53 27.35,24.52 27.23,24.52
L26.71,24.52 
" />
</g>
<g fill="rgb(102,102,102)" >
<path 
d="M29.49,25.66
29.74,25.63 
C29.75,25.73 29.78,25.82 29.82,25.88
C29.87,25.95 29.93,26.00 30.02,26.04
C30.12,26.08 30.22,26.10 30.34,26.10
C30.44,26.10 30.53,26.08 30.61,26.05
C30.68,26.02 30.74,25.98 30.78,25.93
C30.82,25.88 30.84,25.82 30.84,25.76
C30.84,25.69 30.82,25.64 30.78,25.59
C30.74,25.54 30.68,25.50 30.60,25.47
C30.55,25.45 30.43,25.42 30.24,25.37
C30.05,25.33 29.92,25.29 29.85,25.25
C29.75,25.20 29.68,25.13 29.63,25.06
C29.59,24.98 29.56,24.90 29.56,24.81
C29.56,24.71 29.59,24.61 29.65,24.52
C29.71,24.43 29.79,24.37 29.90,24.32
C30.01,24.27 30.14,24.25 30.27,24.25
C30.42,24.25 30.56,24.27 30.67,24.32
C30.78,24.37 30.87,24.44 30.93,24.54
C31.00,24.63 31.03,24.74 31.03,24.85
L30.78,24.87 
C30.76,24.75 30.72,24.65 30.64,24.58
C30.56,24.52 30.44,24.49 30.29,24.49
C30.12,24.49 30.01,24.52 29.93,24.57
C29.86,24.63 29.82,24.71 29.82,24.79
C29.82,24.86 29.85,24.92 29.90,24.97
C29.95,25.02 30.09,25.06 30.30,25.11
C30.52,25.16 30.67,25.20 30.75,25.24
C30.87,25.30 30.95,25.36 31.01,25.45
C31.07,25.53 31.09,25.63 31.09,25.73
C31.09,25.84 31.06,25.94 31.00,26.04
C30.94,26.13 30.85,26.21 30.74,26.26
C30.62,26.31 30.49,26.34 30.35,26.34
C30.16,26.34 30.01,26.31 29.89,26.26
C29.76,26.21 29.67,26.13 29.60,26.02
C29.53,25.91 29.49,25.79 29.49,25.66
" />
</g>
</g>
</g>
</g>
<g opacity="1.00">
</g>
<g opacity="1.00">
</g>
<g opacity="1.00">
</g>
</g>
</g>
</g>
</g>
</svg>
